PathFileType	4	(X/Y/Z)	 New Session 102.trc
DataRate	CameraRate	NumFrames	NumMarkers	Units	OrigDataRate	OrigDataStartFrame	OrigNumFrames
100	100	27	14	m	100	38	302
Frame#	Time	C7			T8			IJ			PX			AA			AC			AI			TS			SC			GH			LE			ME			US			RS			
		X1	Y1	Z1	X2	Y2	Z2	X3	Y3	Z3	X4	Y4	Z4	X5	Y5	Z5	X6	Y6	Z6	X7	Y7	Z7	X8	Y8	Z8	X9	Y9	Z9	X10	Y10	Z10	X11	Y11	Z11	X12	Y12	Z12	X13	Y13	Z13	X14	Y14	Z14	
38	0.3800	0.024836	0.103782	0.162131	0.029484	-0.111241	0.233853	-0.000125	-0.000037	-0.000111	0.000831	-0.142815	-0.066950	0.222666	0.006944	0.139743	0.169842	0.048936	0.070746	0.108395	0.026847	0.200499	0.111628	-0.091606	0.230845	0.025140	0.008195	0.003674	0.232396	0.020127	0.099324	0.320058	-0.248632	0.009428	0.245969	-0.300145	0.045279	0.397613	-0.491461	-0.094683	0.324416	-0.499966	-0.130329	
39	0.3900	0.024814	0.103786	0.162057	0.029489	-0.111233	0.233798	-0.000147	-0.000025	-0.000166	0.000801	-0.142814	-0.066997	0.222667	0.006976	0.139667	0.169813	0.048939	0.070660	0.108380	0.026866	0.200430	0.111632	-0.091578	0.230798	0.025102	0.008192	0.003601	0.232380	0.020148	0.099234	0.320087	-0.248596	0.009384	0.245989	-0.300131	0.045227	0.397628	-0.491438	-0.094737	0.324471	-0.499903	-0.130419	
40	0.4000	0.024783	0.103787	0.161998	0.029487	-0.111234	0.233731	-0.000171	-0.000010	-0.000222	0.000781	-0.142815	-0.067041	0.222658	0.007001	0.139603	0.169792	0.048948	0.070581	0.108363	0.026870	0.200368	0.111631	-0.091553	0.230752	0.025063	0.008184	0.003537	0.232359	0.020168	0.099150	0.320095	-0.248574	0.009345	0.245998	-0.300124	0.045170	0.397640	-0.491418	-0.094783	0.324529	-0.499838	-0.130517	
41	0.4100	0.024746	0.103785	0.161947	0.029479	-0.111240	0.233656	-0.000196	0.000005	-0.000278	0.000773	-0.142822	-0.067080	0.222645	0.007025	0.139545	0.169776	0.048963	0.070511	0.108340	0.026867	0.200310	0.111625	-0.091531	0.230708	0.025032	0.008177	0.003476	0.232335	0.020188	0.099071	0.320076	-0.248564	0.009310	0.245994	-0.300122	0.045110	0.397648	-0.491401	-0.094826	0.324585	-0.499775	-0.130619	
42	0.4200	0.024710	0.103782	0.161887	0.029464	-0.111243	0.233579	-0.000223	0.000022	-0.000334	0.000768	-0.142838	-0.067120	0.222638	0.007056	0.139486	0.169757	0.048980	0.070442	0.108315	0.026866	0.200245	0.111616	-0.091511	0.230664	0.025007	0.008174	0.003406	0.232309	0.020206	0.098997	0.320044	-0.248558	0.009275	0.245979	-0.300121	0.045048	0.397647	-0.491384	-0.094876	0.324630	-0.499717	-0.130724	
43	0.4300	0.024681	0.103781	0.161808	0.029445	-0.111235	0.233510	-0.000250	0.000039	-0.000392	0.000756	-0.142860	-0.067166	0.222635	0.007102	0.139422	0.169725	0.048995	0.070365	0.108288	0.026879	0.200166	0.111603	-0.091494	0.230621	0.024981	0.008177	0.003316	0.232285	0.020224	0.098927	0.320014	-0.248546	0.009231	0.245959	-0.300116	0.044985	0.397636	-0.491363	-0.094940	0.324661	-0.499666	-0.130829	
44	0.4400	0.024657	0.103792	0.161715	0.029421	-0.111212	0.233453	-0.000280	0.000055	-0.000450	0.000738	-0.142880	-0.067217	0.222634	0.007161	0.139353	0.169684	0.049010	0.070281	0.108262	0.026911	0.200080	0.111589	-0.091477	0.230576	0.024944	0.008185	0.003217	0.232262	0.020245	0.098863	0.319981	-0.248527	0.009168	0.245938	-0.300102	0.044923	0.397614	-0.491334	-0.095020	0.324677	-0.499620	-0.130932	
45	0.4500	0.024636	0.103813	0.161619	0.029394	-0.111177	0.233407	-0.000310	0.000071	-0.000509	0.000717	-0.142887	-0.067272	0.222634	0.007227	0.139288	0.169644	0.049024	0.070196	0.108239	0.026955	0.199999	0.111574	-0.091462	0.230530	0.024891	0.008196	0.003127	0.232240	0.020273	0.098802	0.319920	-0.248508	0.009080	0.245920	-0.300078	0.044863	0.397589	-0.491296	-0.095107	0.324678	-0.499579	-0.131031	
46	0.4600	0.024615	0.103834	0.161528	0.029366	-0.111140	0.233365	-0.000343	0.000086	-0.000570	0.000697	-0.142884	-0.067330	0.222629	0.007285	0.139227	0.169612	0.049043	0.070119	0.108217	0.026998	0.199929	0.111559	-0.091449	0.230479	0.024832	0.008212	0.003058	0.232215	0.020306	0.098741	0.319811	-0.248492	0.008972	0.245905	-0.300048	0.044808	0.397563	-0.491253	-0.095190	0.324670	-0.499542	-0.131120	
47	0.4700	0.024592	0.103844	0.161447	0.029343	-0.111109	0.233320	-0.000378	0.000099	-0.000632	0.000674	-0.142875	-0.067392	0.222610	0.007317	0.139161	0.169586	0.049070	0.070048	0.108196	0.027028	0.199866	0.111546	-0.091436	0.230423	0.024787	0.008227	0.003002	0.232186	0.020339	0.098675	0.319674	-0.248481	0.008855	0.245891	-0.300017	0.044757	0.397538	-0.491214	-0.095262	0.324656	-0.499510	-0.131193	
48	0.4800	0.024564	0.103845	0.161381	0.029328	-0.111093	0.233270	-0.000414	0.000110	-0.000697	0.000649	-0.142870	-0.067458	0.222574	0.007317	0.139084	0.169561	0.049095	0.069980	0.108174	0.027042	0.199806	0.111534	-0.091424	0.230359	0.024775	0.008230	0.002946	0.232158	0.020367	0.098606	0.319546	-0.248476	0.008745	0.245877	-0.299992	0.044708	0.397514	-0.491183	-0.095326	0.324639	-0.499487	-0.131243	
49	0.4900	0.024530	0.103852	0.161329	0.029321	-0.111091	0.233214	-0.000453	0.000120	-0.000765	0.000625	-0.142868	-0.067530	0.222525	0.007301	0.138996	0.169538	0.049107	0.069909	0.108153	0.027045	0.199745	0.111524	-0.091411	0.230287	0.024782	0.008222	0.002888	0.232133	0.020385	0.098536	0.319459	-0.248473	0.008651	0.245862	-0.299976	0.044659	0.397489	-0.491164	-0.095389	0.324620	-0.499478	-0.131263	
50	0.5000	0.024487	0.103873	0.161281	0.029316	-0.111099	0.233153	-0.000494	0.000126	-0.000836	0.000607	-0.142863	-0.067607	0.222477	0.007289	0.138905	0.169518	0.049108	0.069838	0.108133	0.027048	0.199684	0.111515	-0.091399	0.230205	0.024786	0.008213	0.002834	0.232110	0.020396	0.098466	0.319418	-0.248471	0.008572	0.245848	-0.299970	0.044609	0.397463	-0.491156	-0.095458	0.324595	-0.499486	-0.131252	
51	0.5100	0.024440	0.103906	0.161229	0.029307	-0.111105	0.233091	-0.000536	0.000130	-0.000911	0.000594	-0.142848	-0.067688	0.222439	0.007295	0.138816	0.169499	0.049110	0.069764	0.108114	0.027060	0.199625	0.111506	-0.091386	0.230113	0.024780	0.008212	0.002783	0.232082	0.020407	0.098395	0.319411	-0.248466	0.008502	0.245839	-0.299968	0.044556	0.397437	-0.491155	-0.095533	0.324562	-0.499511	-0.131214	
52	0.5200	0.024399	0.103941	0.161164	0.029290	-0.111098	0.233029	-0.000579	0.000131	-0.000991	0.000580	-0.142826	-0.067771	0.222412	0.007318	0.138731	0.169481	0.049122	0.069684	0.108100	0.027085	0.199561	0.111498	-0.091371	0.230012	0.024758	0.008220	0.002722	0.232049	0.020420	0.098321	0.319419	-0.248456	0.008435	0.245839	-0.299963	0.044503	0.397411	-0.491156	-0.095614	0.324518	-0.499550	-0.131163	
53	0.5300	0.024371	0.103975	0.161087	0.029259	-0.111069	0.232967	-0.000623	0.000129	-0.001076	0.000559	-0.142809	-0.067849	0.222392	0.007352	0.138647	0.169460	0.049144	0.069597	0.108088	0.027122	0.199488	0.111490	-0.091355	0.229902	0.024725	0.008231	0.002651	0.232017	0.020441	0.098241	0.319422	-0.248441	0.008366	0.245847	-0.299948	0.044451	0.397385	-0.491155	-0.095693	0.324461	-0.499597	-0.131118	
54	0.5400	0.024353	0.104008	0.161004	0.029217	-0.111022	0.232903	-0.000666	0.000125	-0.001166	0.000530	-0.142811	-0.067916	0.222375	0.007392	0.138558	0.169426	0.049171	0.069501	0.108073	0.027165	0.199405	0.111481	-0.091337	0.229786	0.024694	0.008232	0.002571	0.231989	0.020469	0.098154	0.319400	-0.248423	0.008290	0.245856	-0.299921	0.044400	0.397354	-0.491151	-0.095766	0.324395	-0.499642	-0.131097	
55	0.5500	0.024338	0.104041	0.160919	0.029171	-0.110969	0.232838	-0.000708	0.000119	-0.001260	0.000498	-0.142827	-0.067976	0.222359	0.007432	0.138458	0.169383	0.049197	0.069401	0.108051	0.027208	0.199319	0.111472	-0.091318	0.229666	0.024676	0.008225	0.002487	0.231963	0.020502	0.098058	0.319341	-0.248407	0.008203	0.245859	-0.299890	0.044349	0.397318	-0.491145	-0.095827	0.324326	-0.499680	-0.131104	
56	0.5600	0.024316	0.104071	0.160833	0.029129	-0.110923	0.232773	-0.000748	0.000110	-0.001358	0.000465	-0.142840	-0.068041	0.222337	0.007465	0.138345	0.169349	0.049220	0.069307	0.108025	0.027248	0.199236	0.111463	-0.091297	0.229545	0.024659	0.008227	0.002403	0.231934	0.020535	0.097947	0.319256	-0.248395	0.008106	0.245847	-0.299863	0.044295	0.397278	-0.491139	-0.095877	0.324260	-0.499705	-0.131136	
57	0.5700	0.024283	0.104094	0.160744	0.029098	-0.110894	0.232708	-0.000785	0.000100	-0.001460	0.000431	-0.142843	-0.068119	0.222307	0.007489	0.138225	0.169341	0.049239	0.069232	0.107999	0.027286	0.199157	0.111454	-0.091275	0.229427	0.024628	0.008246	0.002322	0.231901	0.020563	0.097824	0.319172	-0.248385	0.008009	0.245813	-0.299851	0.044234	0.397237	-0.491134	-0.095919	0.324203	-0.499716	-0.131188	
58	0.5800	0.024239	0.104109	0.160653	0.029075	-0.110882	0.232641	-0.000820	0.000088	-0.001565	0.000400	-0.142839	-0.068212	0.222274	0.007504	0.138107	0.169343	0.049252	0.069171	0.107978	0.027318	0.199081	0.111445	-0.091252	0.229316	0.024584	0.008271	0.002241	0.231863	0.020580	0.097699	0.319111	-0.248374	0.007920	0.245765	-0.299857	0.044168	0.397196	-0.491135	-0.095957	0.324158	-0.499715	-0.131253	
59	0.5900	0.024193	0.104119	0.160562	0.029055	-0.110880	0.232573	-0.000851	0.000075	-0.001671	0.000376	-0.142837	-0.068315	0.222244	0.007517	0.137996	0.169326	0.049257	0.069099	0.107961	0.027342	0.198997	0.111438	-0.091226	0.229214	0.024535	0.008288	0.002153	0.231827	0.020587	0.097580	0.319084	-0.248361	0.007844	0.245717	-0.299874	0.044096	0.397157	-0.491140	-0.095997	0.324123	-0.499708	-0.131321	
60	0.6000	0.024153	0.104130	0.160474	0.029032	-0.110877	0.232505	-0.000879	0.000061	-0.001778	0.000358	-0.142844	-0.068416	0.222223	0.007531	0.137891	0.169284	0.049258	0.069002	0.107943	0.027356	0.198904	0.111431	-0.091199	0.229123	0.024495	0.008287	0.002063	0.231799	0.020590	0.097476	0.319083	-0.248343	0.007779	0.245674	-0.299888	0.044020	0.397120	-0.491146	-0.096044	0.324093	-0.499700	-0.131386	
61	0.6100	0.024123	0.104146	0.160390	0.029006	-0.110863	0.232437	-0.000904	0.000046	-0.001884	0.000340	-0.142855	-0.068504	0.222211	0.007553	0.137789	0.169224	0.049264	0.068887	0.107926	0.027371	0.198807	0.111426	-0.091171	0.229044	0.024473	0.008278	0.001978	0.231778	0.020605	0.097385	0.319092	-0.248318	0.007723	0.245636	-0.299887	0.043940	0.397083	-0.491149	-0.096097	0.324062	-0.499699	-0.131444	
62	0.6200	0.024102	0.104166	0.160306	0.028980	-0.110836	0.232366	-0.000925	0.000032	-0.001989	0.000318	-0.142864	-0.068579	0.222203	0.007587	0.137690	0.169151	0.049281	0.068765	0.107912	0.027395	0.198710	0.111421	-0.091142	0.228975	0.024458	0.008273	0.001905	0.231757	0.020639	0.097297	0.319094	-0.248285	0.007676	0.245601	-0.299865	0.043857	0.397044	-0.491148	-0.096156	0.324027	-0.499706	-0.131495	
63	0.6300	0.024084	0.104179	0.160217	0.028960	-0.110801	0.232287	-0.000942	0.000018	-0.002091	0.000295	-0.142869	-0.068649	0.222195	0.007629	0.137590	0.169078	0.049310	0.068647	0.107898	0.027433	0.198612	0.111418	-0.091113	0.228915	0.024432	0.008274	0.001844	0.231731	0.020689	0.097202	0.319072	-0.248246	0.007639	0.245566	-0.299829	0.043773	0.397005	-0.491145	-0.096219	0.323985	-0.499723	-0.131539	
64	0.6400	0.024065	0.104179	0.160118	0.028950	-0.110772	0.232203	-0.000956	0.000004	-0.002191	0.000278	-0.142871	-0.068719	0.222183	0.007673	0.137489	0.169025	0.049339	0.068544	0.107885	0.027475	0.198515	0.111414	-0.091085	0.228863	0.024393	0.008275	0.001791	0.231700	0.020736	0.097097	0.319010	-0.248210	0.007601	0.245533	-0.299793	0.043691	0.396965	-0.491147	-0.096282	0.323936	-0.499748	-0.131578	
